<?xml version="1.0" encoding="UTF-8" standalone="no"?>
<svg
   xmlns:dc="http://purl.org/dc/elements/1.1/"
   xmlns:cc="http://creativecommons.org/ns#"
   xmlns:rdf="http://www.w3.org/1999/02/22-rdf-syntax-ns#"
   xmlns:svg="http://www.w3.org/2000/svg"
   xmlns="http://www.w3.org/2000/svg"
   xmlns:sodipodi="http://sodipodi.sourceforge.net/DTD/sodipodi-0.dtd"
   xmlns:inkscape="http://www.inkscape.org/namespaces/inkscape"
   sodipodi:docname="bblogo_2.svg"
   inkscape:version="1.0 (4035a4fb49, 2020-05-01)"
   id="svg8"
   version="1.1"
   viewBox="0 0 455 455"
   height="455mm"
   width="455mm">
  <defs
     id="defs2" />
  <sodipodi:namedview
     inkscape:lockguides="true"
     inkscape:window-maximized="0"
     inkscape:window-y="0"
     inkscape:window-x="137"
     inkscape:window-height="1002"
     inkscape:window-width="1375"
     showgrid="false"
     inkscape:document-rotation="0"
     inkscape:current-layer="layer1"
     inkscape:document-units="mm"
     inkscape:cy="570.16083"
     inkscape:cx="494.26589"
     inkscape:zoom="0.54883834"
     inkscape:pageshadow="2"
     inkscape:pageopacity="0.0"
     borderopacity="1.0"
     bordercolor="#666666"
     pagecolor="#ffffff"
     id="base" />
  <metadata
     id="metadata5">
    <rdf:RDF>
      <cc:Work
         rdf:about="">
        <dc:format>image/svg+xml</dc:format>
        <dc:type
           rdf:resource="http://purl.org/dc/dcmitype/StillImage" />
        <dc:title></dc:title>
      </cc:Work>
    </rdf:RDF>
  </metadata>
  <g
     id="layer1"
     inkscape:groupmode="layer"
     inkscape:label="Layer 1">
    <rect
       style="fill:#ff0000;stroke-width:0.301263"
       id="rect502-1"
       width="361.34354"
       height="348.1893"
       x="38.204082"
       y="101.84683"
       transform="matrix(0.96860738,-0.24859554,0,1,0,0)" />
    <rect
       transform="matrix(0.96860738,-0.24859554,0,1,0,0)"
       y="112.21651"
       x="49.796146"
       height="348.1893"
       width="361.34354"
       id="rect502"
       style="fill:#e6e6e6;stroke-width:0.301262" />
    <rect
       ry="0"
       style="fill:#aa0000;stroke-width:0.321448"
       id="rect46-4-0-9-6-5-3-4"
       width="88.84301"
       height="39.342861"
       x="-156.06429"
       y="365.71988"
       transform="matrix(0.96696101,-0.2549243,0.94364634,0.33095557,0,0)" />
    <rect
       transform="matrix(0.96696101,-0.2549243,0.94364634,0.33095557,0,0)"
       y="516.50421"
       x="-303.82101"
       height="39.342861"
       width="88.84301"
       id="rect46-4-0-9-6-5-3"
       style="fill:#aa0000;stroke-width:0.321448"
       ry="0" />
    <rect
       ry="0"
       style="fill:#aa0000;stroke-width:0.321448"
       id="rect46-4-0-9-6-8"
       width="88.84301"
       height="39.342861"
       x="-264.74973"
       y="442.25446"
       transform="matrix(0.96696101,-0.2549243,0.94364634,0.33095557,0,0)" />
    <rect
       style="fill:#d40000;stroke-width:0.25288"
       id="rect46-9-8-84"
       width="71.855003"
       height="42.950935"
       x="256.1348"
       y="231.3127"
       transform="matrix(0.96941342,-0.24543352,-6.7565852e-4,0.99999977,0,0)" />
    <rect
       ry="0"
       style="fill:#aa0000;stroke-width:0.321448"
       id="rect46-4-0-9"
       width="88.84301"
       height="39.342865"
       x="-418.11993"
       y="599.5741"
       transform="matrix(0.96696101,-0.2549243,0.94364634,0.33095557,0,0)" />
    <rect
       style="fill:#aa0000;stroke-width:0.306467"
       id="rect293-4"
       width="33.568558"
       height="42.985512"
       x="236.61334"
       y="147.17668"
       transform="matrix(0.91300934,0.40793865,0.00523596,0.99998629,0,0)" />
    <rect
       transform="matrix(0.96941342,-0.24543352,-6.7565929e-4,0.99999977,0,0)"
       y="318.7486"
       x="255.58943"
       height="42.950935"
       width="71.855003"
       id="rect46-9-8"
       style="fill:#d40000;stroke-width:0.25288" />
    <rect
       transform="matrix(0.93772478,0.34737911,0,1,0,0)"
       y="63.349464"
       x="173.1001"
       height="219.98215"
       width="38.69548"
       id="rect10"
       style="fill:#808080;stroke-width:0.273229" />
    <rect
       style="fill:#b3b3b3;stroke-width:0.0658331"
       id="rect46-9-8-8-9-3"
       width="36.752045"
       height="5.6911979"
       x="333.5979"
       y="148.02431"
       transform="matrix(0.92837334,0.37164894,-0.62696145,0.77905028,0,0)" />
    <rect
       transform="matrix(0.96723904,-0.25386735,0,1,0,0)"
       y="278.96603"
       x="205.17659"
       height="38.86293"
       width="89.879051"
       id="rect46-8-7"
       style="fill:#d40000;stroke-width:0.269026" />
    <rect
       transform="matrix(-0.97195072,0.23518461,0,-1,0,0)"
       y="-395.17166"
       x="-187.46001"
       height="219.98215"
       width="37.332863"
       id="rect10-5-7"
       style="fill:#999999;stroke-width:0.268377" />
    <rect
       style="fill:#666666;stroke-width:0.27323"
       id="rect10-5"
       width="38.695477"
       height="219.98215"
       x="134.72708"
       y="86.733627"
       transform="matrix(0.93772478,0.34737911,0,1,0,0)" />
    <rect
       style="fill:#d40000;stroke-width:0.269026"
       id="rect46-8"
       width="89.879051"
       height="38.86293"
       x="205.3329"
       y="370.16937"
       transform="matrix(0.96723904,-0.25386735,0,1,0,0)" />
    <rect
       transform="matrix(0.96696101,-0.2549243,0.94364634,0.33095557,0,0)"
       y="287.15594"
       x="-113.23453"
       height="39.342861"
       width="88.84301"
       id="rect46-4-0-9-6"
       style="fill:#aa0000;stroke-width:0.321448"
       ry="0" />
    <rect
       style="fill:#b3b3b3;stroke-width:0.069516"
       id="rect46-9-8-8"
       width="38.496742"
       height="6.0581875"
       x="262.13022"
       y="364.31052"
       transform="matrix(0.96814462,-0.25039167,-0.0152937,0.99988304,0,0)" />
    <rect
       transform="matrix(0.96814462,-0.25039167,-0.0152937,0.99988304,0,0)"
       y="318.20609"
       x="261.01758"
       height="6.0581875"
       width="38.496742"
       id="rect46-9-8-8-3"
       style="fill:#b3b3b3;stroke-width:0.0695161" />
    <rect
       style="fill:#b3b3b3;stroke-width:0.0695161"
       id="rect46-9-8-8-3-2"
       width="38.496742"
       height="6.0581875"
       x="260.09485"
       y="274.1279"
       transform="matrix(0.96814462,-0.25039167,-0.0152937,0.99988304,0,0)" />
    <rect
       transform="matrix(0.96814462,-0.25039167,-0.0152937,0.99988304,0,0)"
       y="227.51929"
       x="259.99887"
       height="6.0581875"
       width="38.496742"
       id="rect46-9-8-8-3-2-1"
       style="fill:#b3b3b3;stroke-width:0.0695161" />
    <rect
       transform="matrix(0.92837334,0.37164894,-0.62696146,0.77905028,0,0)"
       y="193.6252"
       x="365.27448"
       height="5.6911979"
       width="36.752045"
       id="rect46-9-8-8-9"
       style="fill:#b3b3b3;stroke-width:0.0658332" />
    <rect
       style="fill:#b3b3b3;stroke-width:0.0655884"
       id="rect46-9-8-8-9-8"
       width="37.417011"
       height="5.548583"
       x="300.96234"
       y="107.97742"
       transform="matrix(0.93099022,0.36504412,-0.60123252,0.79907413,0,0)" />
    <rect
       transform="matrix(0.9578854,0.28715075,0.03304843,0.99945375,0,0)"
       y="90.020004"
       x="210.2715"
       height="4.436152"
       width="47.56686"
       id="rect46-9-8-8-9-8-2"
       style="fill:#b3b3b3;stroke-width:0.0661238" />
    <rect
       transform="matrix(0.91300934,0.40793865,0.00523596,0.99998629,0,0)"
       y="57.711948"
       x="237.8876"
       height="42.985516"
       width="33.568558"
       id="rect293-4-4"
       style="fill:#aa0000;stroke-width:0.306467" />
    <rect
       transform="matrix(0.96723904,-0.25386735,0,1,0,0)"
       y="189.05014"
       x="205.3329"
       height="38.86293"
       width="89.879051"
       id="rect46"
       style="fill:#d40000;stroke-width:0.269026" />
  </g>
</svg>
