<?xml version="1.0" encoding="UTF-8" standalone="no"?>
<svg
   xmlns:dc="http://purl.org/dc/elements/1.1/"
   xmlns:cc="http://creativecommons.org/ns#"
   xmlns:rdf="http://www.w3.org/1999/02/22-rdf-syntax-ns#"
   xmlns:svg="http://www.w3.org/2000/svg"
   xmlns="http://www.w3.org/2000/svg"
   viewBox="0 0 606 368"
   height="368"
   width="606"
   opacity="0.3"
   xml:space="preserve"
   id="svg2"
   version="1.1"><metadata
     id="metadata8"><rdf:RDF><cc:Work
         rdf:about=""><dc:format>image/svg+xml</dc:format><dc:type
           rdf:resource="http://purl.org/dc/dcmitype/StillImage" /></cc:Work></rdf:RDF></metadata><defs
     id="defs6" /><g
     transform="matrix(1.3333333,0,0,-1.3333333,0,399.93333)"
     id="g10"><g
       transform="scale(0.1)"
       id="g12"><path
         id="path14"
         style="fill:#cc4723;fill-opacity:1;fill-rule:nonzero;stroke:none"
         d="M 741.305,2762.33 H 252.59 c -11.016,0 -19.945,8.93 -19.945,19.94 v 197.32 c 0,11.01 8.929,19.94 19.945,19.94 h 488.715 c 11.015,0 19.945,-8.93 19.945,-19.94 v -197.32 c 0,-11.01 -8.93,-19.94 -19.945,-19.94" /><path
         id="path16"
         style="fill:#d15938;fill-opacity:1;fill-rule:nonzero;stroke:none"
         d="M 508.66,2487.43 H 19.9453 C 8.92969,2487.43 0,2496.36 0,2507.38 v 197.31 c 0,11.01 8.92969,19.94 19.9453,19.94 H 508.66 c 11.016,0 19.945,-8.93 19.945,-19.94 v -197.31 c 0,-11.02 -8.929,-19.95 -19.945,-19.95" /><path
         id="path18"
         style="fill:#c43825;fill-opacity:1;fill-rule:nonzero;stroke:none"
         d="M 1075.26,2487.43 H 586.547 c -11.016,0 -19.945,8.93 -19.945,19.95 v 197.31 c 0,11.01 8.929,19.94 19.945,19.94 h 488.713 c 11.02,0 19.95,-8.93 19.95,-19.94 v -197.31 c 0,-11.02 -8.93,-19.95 -19.95,-19.95" /><path
         id="path20"
         style="fill:#d15938;fill-opacity:1;fill-rule:nonzero;stroke:none"
         d="m 1641.86,2487.43 h -488.71 c -11.02,0 -19.94,8.93 -19.94,19.95 v 197.31 c 0,11.01 8.93,19.94 19.94,19.94 h 488.72 c 11.01,0 19.94,-8.93 19.94,-19.94 v -197.31 c 0,-11.02 -8.93,-19.95 -19.95,-19.95" /><path
         id="path22"
         style="fill:#d15938;fill-opacity:1;fill-rule:nonzero;stroke:none"
         d="m 2208.47,2487.43 h -488.72 c -11.01,0 -19.94,8.93 -19.94,19.95 v 197.31 c 0,11.01 8.93,19.94 19.94,19.94 h 488.72 c 11.01,0 19.94,-8.93 19.94,-19.94 v -197.31 c 0,-11.02 -8.93,-19.95 -19.94,-19.95" /><path
         id="path24"
         style="fill:#cc4723;fill-opacity:1;fill-rule:nonzero;stroke:none"
         d="m 2775.07,2487.43 h -488.72 c -11.01,0 -19.94,8.93 -19.94,19.95 v 197.31 c 0,11.01 8.93,19.94 19.95,19.94 h 488.71 c 11.01,0 19.94,-8.93 19.94,-19.94 v -197.31 c 0,-11.02 -8.93,-19.95 -19.94,-19.95" /><path
         id="path26"
         style="fill:#a33324;fill-opacity:1;fill-rule:nonzero;stroke:none"
         d="m 3341.67,2487.43 h -488.72 c -11.01,0 -19.94,8.93 -19.94,19.95 v 197.3 c 0,11.02 8.93,19.95 19.95,19.95 h 488.71 c 11.02,0 19.94,-8.93 19.94,-19.94 v -197.31 c 0,-11.02 -8.92,-19.95 -19.94,-19.95" /><path
         id="path28"
         style="fill:#d15938;fill-opacity:1;fill-rule:nonzero;stroke:none"
         d="m 3908.27,2487.43 h -488.72 c -11.01,0 -19.94,8.93 -19.94,19.95 v 197.31 c 0,11.01 8.93,19.94 19.95,19.94 h 488.71 c 11.02,0 19.95,-8.93 19.95,-19.94 v -197.31 c 0,-11.02 -8.93,-19.95 -19.95,-19.95" /><path
         id="path30"
         style="fill:#cc4723;fill-opacity:1;fill-rule:nonzero;stroke:none"
         d="m 4474.87,2487.43 h -488.71 c -11.02,0 -19.95,8.93 -19.95,19.95 v 197.31 c 0,11.01 8.93,19.94 19.95,19.94 h 488.72 c 11.01,0 19.94,-8.93 19.94,-19.94 v -197.31 c 0,-11.02 -8.93,-19.95 -19.95,-19.95" /><path
         id="path32"
         style="fill:#d15938;fill-opacity:1;fill-rule:nonzero;stroke:none"
         d="M 1309.8,2762.33 H 821.09 c -11.016,0 -19.945,8.93 -19.945,19.95 v 197.31 c 0,11.01 8.929,19.94 19.945,19.94 h 488.71 c 11.02,0 19.95,-8.93 19.95,-19.94 v -197.32 c 0,-11.01 -8.93,-19.94 -19.95,-19.94" /><path
         id="path34"
         style="fill:#cc4723;fill-opacity:1;fill-rule:nonzero;stroke:none"
         d="m 1878.3,2762.33 h -488.71 c -11.02,0 -19.95,8.93 -19.95,19.94 v 197.32 c 0,11.01 8.93,19.94 19.95,19.94 h 488.72 c 11.01,0 19.94,-8.93 19.94,-19.94 v -197.32 c 0,-11.01 -8.93,-19.94 -19.95,-19.94" /><path
         id="path36"
         style="fill:#c43825;fill-opacity:1;fill-rule:nonzero;stroke:none"
         d="m 2446.8,2762.33 h -488.71 c -11.02,0 -19.94,8.93 -19.94,19.94 v 197.32 c 0,11.01 8.93,19.94 19.94,19.94 h 488.72 c 11.01,0 19.94,-8.93 19.94,-19.94 v -197.32 c 0,-11.01 -8.93,-19.94 -19.95,-19.94" /><path
         id="path38"
         style="fill:#d15938;fill-opacity:1;fill-rule:nonzero;stroke:none"
         d="m 3015.3,2762.33 h -488.71 c -11.01,0 -19.94,8.93 -19.94,19.94 v 197.32 c 0,11.01 8.92,19.94 19.94,19.94 h 488.72 c 11.01,0 19.94,-8.93 19.94,-19.94 v -197.32 c 0,-11.01 -8.93,-19.94 -19.95,-19.94" /><path
         id="path40"
         style="fill:#cc4723;fill-opacity:1;fill-rule:nonzero;stroke:none"
         d="m 3583.8,2762.33 h -488.71 c -11.02,0 -19.95,8.93 -19.95,19.94 v 197.32 c 0,11.01 8.93,19.94 19.95,19.94 h 488.72 c 11.01,0 19.94,-8.93 19.94,-19.94 v -197.32 c 0,-11.01 -8.93,-19.94 -19.95,-19.94" /><path
         id="path42"
         style="fill:#d15938;fill-opacity:1;fill-rule:nonzero;stroke:none"
         d="m 4152.3,2762.33 h -488.71 c -11.02,0 -19.95,8.93 -19.95,19.94 v 197.32 c 0,11.01 8.93,19.94 19.95,19.94 h 488.71 c 11.02,0 19.95,-8.93 19.95,-19.94 v -197.32 c 0,-11.01 -8.93,-19.94 -19.95,-19.94" /><path
         id="path44"
         style="fill:#d15938;fill-opacity:1;fill-rule:nonzero;stroke:none"
         d="M 741.301,2209.86 H 252.59 c -11.016,0 -19.945,8.93 -19.945,19.94 v 197.32 c 0,11.01 8.929,19.94 19.945,19.94 h 488.715 c 11.015,0 19.945,-8.93 19.945,-19.94 v -197.31 c 0,-11.02 -8.93,-19.95 -19.949,-19.95" /><path
         id="path46"
         style="fill:#d15938;fill-opacity:1;fill-rule:nonzero;stroke:none"
         d="M 508.656,1934.96 H 19.9453 C 8.92969,1934.96 0,1943.89 0,1954.91 v 197.31 c 0,11.01 8.92969,19.94 19.9453,19.94 H 508.66 c 11.016,0 19.945,-8.92 19.945,-19.94 v -197.31 c 0,-11.02 -8.933,-19.95 -19.949,-19.95" /><path
         id="path48"
         style="fill:#d15938;fill-opacity:1;fill-rule:nonzero;stroke:none"
         d="M 1075.26,1934.96 H 586.547 c -11.016,0 -19.945,8.93 -19.945,19.95 v 197.31 c 0,11.01 8.929,19.94 19.945,19.94 h 488.713 c 11.02,0 19.95,-8.93 19.95,-19.94 v -197.31 c 0,-11.02 -8.93,-19.95 -19.95,-19.95" /><path
         id="path50"
         style="fill:#d15938;fill-opacity:1;fill-rule:nonzero;stroke:none"
         d="m 1641.86,1934.96 h -488.71 c -11.02,0 -19.94,8.93 -19.94,19.95 v 197.31 c 0,11.01 8.92,19.94 19.94,19.94 h 488.72 c 11.01,0 19.94,-8.92 19.94,-19.94 v -197.31 c 0,-11.02 -8.93,-19.95 -19.95,-19.95" /><path
         id="path52"
         style="fill:#d15938;fill-opacity:1;fill-rule:nonzero;stroke:none"
         d="m 2208.46,1934.96 h -488.71 c -11.01,0 -19.94,8.93 -19.94,19.95 v 197.31 c 0,11.01 8.93,19.94 19.94,19.94 h 488.72 c 11.01,0 19.94,-8.93 19.94,-19.94 v -197.31 c 0,-11.02 -8.93,-19.95 -19.95,-19.95" /><path
         id="path54"
         style="fill:#c43825;fill-opacity:1;fill-rule:nonzero;stroke:none"
         d="m 2775.06,1934.96 h -488.71 c -11.01,0 -19.94,8.93 -19.94,19.95 v 197.31 c 0,11.01 8.93,19.94 19.94,19.94 h 488.72 c 11.01,0 19.94,-8.93 19.94,-19.94 v -197.31 c 0,-11.02 -8.93,-19.95 -19.95,-19.95" /><path
         id="path56"
         style="fill:#cc4723;fill-opacity:1;fill-rule:nonzero;stroke:none"
         d="m 3341.67,1934.96 h -488.72 c -11.01,0 -19.94,8.93 -19.94,19.95 v 197.31 c 0,11.01 8.93,19.94 19.94,19.94 h 488.72 c 11.02,0 19.94,-8.93 19.94,-19.94 v -197.31 c 0,-11.02 -8.93,-19.95 -19.94,-19.95" /><path
         id="path58"
         style="fill:#d15938;fill-opacity:1;fill-rule:nonzero;stroke:none"
         d="m 3908.27,1934.96 h -488.72 c -11.01,0 -19.94,8.93 -19.94,19.95 v 197.31 c 0,11.01 8.93,19.94 19.95,19.94 h 488.71 c 11.02,0 19.95,-8.93 19.95,-19.94 v -197.31 c 0,-11.02 -8.93,-19.95 -19.95,-19.95" /><path
         id="path60"
         style="fill:#cc4723;fill-opacity:1;fill-rule:nonzero;stroke:none"
         d="m 4474.87,1934.96 h -488.71 c -11.02,0 -19.95,8.93 -19.95,19.95 v 197.31 c 0,11.01 8.93,19.94 19.95,19.94 h 488.72 c 11.01,0 19.94,-8.92 19.94,-19.94 v -197.31 c 0,-11.02 -8.93,-19.95 -19.95,-19.95" /><path
         id="path62"
         style="fill:#a9322b;fill-opacity:1;fill-rule:nonzero;stroke:none"
         d="M 1309.8,2209.86 H 821.09 c -11.016,0 -19.945,8.93 -19.945,19.95 v 197.31 c 0,11.02 8.925,19.94 19.941,19.94 H 1309.8 c 11.02,0 19.95,-8.93 19.95,-19.94 v -197.31 c 0,-11.02 -8.93,-19.95 -19.95,-19.95" /><path
         id="path64"
         style="fill:#b63e24;fill-opacity:1;fill-rule:nonzero;stroke:none"
         d="m 1878.3,2209.86 h -488.71 c -11.02,0 -19.95,8.93 -19.95,19.95 v 197.31 c 0,11.02 8.93,19.94 19.94,19.94 h 488.73 c 11.01,0 19.94,-8.93 19.94,-19.94 v -197.31 c 0,-11.02 -8.93,-19.95 -19.95,-19.95" /><path
         id="path66"
         style="fill:#d15938;fill-opacity:1;fill-rule:nonzero;stroke:none"
         d="m 2446.8,2209.86 h -488.71 c -11.02,0 -19.94,8.93 -19.94,19.94 v 197.32 c 0,11.02 8.92,19.94 19.94,19.94 h 488.71 c 11.02,0 19.95,-8.93 19.95,-19.94 v -197.31 c 0,-11.02 -8.93,-19.95 -19.95,-19.95" /><path
         id="path68"
         style="fill:#d15938;fill-opacity:1;fill-rule:nonzero;stroke:none"
         d="m 3015.3,2209.86 h -488.71 c -11.01,0 -19.94,8.93 -19.94,19.94 v 197.32 c 0,11.02 8.92,19.94 19.94,19.94 h 488.72 c 11.01,0 19.94,-8.92 19.94,-19.94 v -197.31 c 0,-11.02 -8.93,-19.95 -19.95,-19.95" /><path
         id="path70"
         style="fill:#d15938;fill-opacity:1;fill-rule:nonzero;stroke:none"
         d="m 3583.8,2209.86 h -488.71 c -11.02,0 -19.95,8.93 -19.95,19.94 v 197.32 c 0,11.02 8.93,19.94 19.95,19.94 h 488.72 c 11.01,0 19.94,-8.92 19.94,-19.94 v -197.31 c 0,-11.02 -8.93,-19.95 -19.95,-19.95" /><path
         id="path72"
         style="fill:#c43825;fill-opacity:1;fill-rule:nonzero;stroke:none"
         d="m 4152.3,2209.86 h -488.71 c -11.02,0 -19.95,8.93 -19.95,19.94 v 197.32 c 0,11.02 8.93,19.94 19.95,19.94 h 488.71 c 11.02,0 19.95,-8.92 19.95,-19.94 v -197.31 c 0,-11.02 -8.93,-19.95 -19.95,-19.95" /><path
         id="path74"
         style="fill:#a33324;fill-opacity:1;fill-rule:nonzero;stroke:none"
         d="M 741.301,1657.4 H 252.59 c -11.016,0 -19.945,8.92 -19.945,19.94 v 197.31 c 0,11.02 8.929,19.95 19.945,19.95 h 488.715 c 11.015,0 19.945,-8.93 19.945,-19.95 v -197.31 c 0,-11.01 -8.93,-19.94 -19.949,-19.94" /><path
         id="path76"
         style="fill:#d15938;fill-opacity:1;fill-rule:nonzero;stroke:none"
         d="M 180.016,2762.33 H 0 v 237.2 h 181.422 c 8.805,0 15.941,-7.14 15.941,-15.94 v -203.91 c 0,-9.59 -7.769,-17.35 -17.347,-17.35" /><path
         id="path78"
         style="fill:#a33324;fill-opacity:1;fill-rule:nonzero;stroke:none"
         d="M 180.012,2209.86 H 0 v 237.2 h 181.422 c 8.805,0 15.941,-7.13 15.941,-15.93 v -203.92 c 0,-9.58 -7.769,-17.35 -17.351,-17.35" /><path
         id="path80"
         style="fill:#d15938;fill-opacity:1;fill-rule:nonzero;stroke:none"
         d="M 180.016,1657.4 H 0 v 237.2 h 181.422 c 8.805,0 15.941,-7.14 15.941,-15.94 v -203.92 c 0,-9.58 -7.765,-17.34 -17.347,-17.34" /><path
         id="path82"
         style="fill:#c43825;fill-opacity:1;fill-rule:nonzero;stroke:none"
         d="M 180.016,1104.93 H 0 v 237.2 h 181.422 c 8.805,0 15.941,-7.14 15.941,-15.94 v -203.91 c 0,-9.58 -7.769,-17.35 -17.347,-17.35" /><path
         id="path84"
         style="fill:#d15938;fill-opacity:1;fill-rule:nonzero;stroke:none"
         d="M 180.016,552.461 H 0 v 237.211 h 181.422 c 8.805,0 15.941,-7.141 15.941,-15.953 v -203.91 c 0,-9.579 -7.769,-17.348 -17.347,-17.348" /><path
         id="path88"
         style="fill:#d15938;fill-opacity:1;fill-rule:nonzero;stroke:none"
         d="m 4311.02,2762.33 h 255.32 v 237.2 h -320.98 c -10.41,0 -18.84,-8.44 -18.84,-18.85 v -197.84 c 0,-11.33 9.18,-20.51 20.5,-20.51" /><path
         id="path90"
         style="fill:#a33324;fill-opacity:1;fill-rule:nonzero;stroke:none"
         d="m 4311.03,2209.86 h 255.31 v 237.2 h -320.98 c -10.41,0 -18.84,-8.43 -18.84,-18.84 v -197.85 c 0,-11.33 9.18,-20.51 20.51,-20.51" /><path
         id="path92"
         style="fill:#d15938;fill-opacity:1;fill-rule:nonzero;stroke:none"
         d="m 4311.02,1657.39 h 255.32 v 237.21 h -320.98 c -10.41,0 -18.84,-8.44 -18.84,-18.85 V 1677.9 c 0,-11.32 9.18,-20.51 20.5,-20.51" /><path
         id="path94"
         style="fill:#c43825;fill-opacity:1;fill-rule:nonzero;stroke:none"
         d="m 4311.02,1104.93 h 255.32 v 237.2 h -320.98 c -10.41,0 -18.84,-8.44 -18.84,-18.84 v -197.85 c 0,-11.33 9.18,-20.51 20.5,-20.51" /><path
         id="path96"
         style="fill:#d15938;fill-opacity:1;fill-rule:nonzero;stroke:none"
         d="m 4311.02,552.461 h 255.32 v 237.211 h -320.98 c -10.41,0 -18.84,-8.442 -18.84,-18.852 V 572.969 c 0,-11.321 9.18,-20.508 20.5,-20.508" /><path
         id="path100"
         style="fill:#d15938;fill-opacity:1;fill-rule:nonzero;stroke:none"
         d="M 508.656,1382.5 H 19.9453 C 8.92969,1382.5 0,1391.43 0,1402.44 v 197.31 c 0,11.02 8.92969,19.95 19.9453,19.95 H 508.66 c 11.016,0 19.945,-8.93 19.945,-19.94 v -197.31 c 0,-11.02 -8.933,-19.95 -19.949,-19.95" /><path
         id="path102"
         style="fill:#d15938;fill-opacity:1;fill-rule:nonzero;stroke:none"
         d="M 1075.26,1382.5 H 586.547 c -11.016,0 -19.945,8.93 -19.945,19.94 v 197.31 c 0,11.02 8.929,19.95 19.945,19.95 h 488.713 c 11.02,0 19.95,-8.93 19.95,-19.95 v -197.3 c 0,-11.02 -8.93,-19.95 -19.95,-19.95" /><path
         id="path104"
         style="fill:#d15938;fill-opacity:1;fill-rule:nonzero;stroke:none"
         d="m 1641.86,1382.5 h -488.71 c -11.02,0 -19.94,8.93 -19.94,19.94 v 197.31 c 0,11.02 8.92,19.95 19.94,19.95 h 488.72 c 11.01,0 19.94,-8.93 19.94,-19.94 v -197.31 c 0,-11.02 -8.93,-19.95 -19.95,-19.95" /><path
         id="path106"
         style="fill:#d15938;fill-opacity:1;fill-rule:nonzero;stroke:none"
         d="m 2208.46,1382.5 h -488.71 c -11.01,0 -19.94,8.93 -19.94,19.94 v 197.31 c 0,11.02 8.93,19.95 19.94,19.95 h 488.72 c 11.01,0 19.94,-8.93 19.94,-19.95 v -197.3 c 0,-11.02 -8.93,-19.95 -19.95,-19.95" /><path
         id="path108"
         style="fill:#b63e24;fill-opacity:1;fill-rule:nonzero;stroke:none"
         d="m 2775.06,1382.5 h -488.71 c -11.01,0 -19.94,8.93 -19.94,19.94 v 197.31 c 0,11.02 8.93,19.95 19.94,19.95 h 488.72 c 11.01,0 19.94,-8.93 19.94,-19.95 v -197.3 c 0,-11.02 -8.93,-19.95 -19.95,-19.95" /><path
         id="path110"
         style="fill:#d15938;fill-opacity:1;fill-rule:nonzero;stroke:none"
         d="m 3341.67,1382.5 h -488.72 c -11.01,0 -19.94,8.93 -19.94,19.94 v 197.31 c 0,11.02 8.93,19.95 19.94,19.95 h 488.72 c 11.02,0 19.94,-8.93 19.94,-19.95 v -197.3 c 0,-11.02 -8.93,-19.95 -19.94,-19.95" /><path
         id="path112"
         style="fill:#d15938;fill-opacity:1;fill-rule:nonzero;stroke:none"
         d="m 3908.27,1382.5 h -488.72 c -11.01,0 -19.94,8.93 -19.94,19.94 v 197.31 c 0,11.02 8.93,19.95 19.95,19.95 h 488.71 c 11.02,0 19.95,-8.93 19.95,-19.95 v -197.3 c 0,-11.02 -8.93,-19.95 -19.95,-19.95" /><path
         id="path114"
         style="fill:#d15938;fill-opacity:1;fill-rule:nonzero;stroke:none"
         d="m 4474.87,1382.5 h -488.71 c -11.02,0 -19.95,8.93 -19.95,19.94 v 197.31 c 0,11.02 8.93,19.95 19.95,19.95 h 488.72 c 11.01,0 19.94,-8.93 19.94,-19.94 v -197.31 c 0,-11.02 -8.93,-19.95 -19.95,-19.95" /><path
         id="path116"
         style="fill:#d15938;fill-opacity:1;fill-rule:nonzero;stroke:none"
         d="M 1309.8,1657.4 H 821.09 c -11.016,0 -19.945,8.93 -19.945,19.94 v 197.32 c 0,11.01 8.925,19.94 19.941,19.94 H 1309.8 c 11.02,0 19.95,-8.93 19.95,-19.95 v -197.31 c 0,-11.01 -8.93,-19.94 -19.95,-19.94" /><path
         id="path118"
         style="fill:#c43825;fill-opacity:1;fill-rule:nonzero;stroke:none"
         d="m 1878.3,1657.4 h -488.71 c -11.02,0 -19.95,8.93 -19.95,19.94 v 197.32 c 0,11.01 8.93,19.94 19.94,19.94 h 488.73 c 11.01,0 19.94,-8.93 19.94,-19.95 v -197.31 c 0,-11.01 -8.93,-19.94 -19.95,-19.94" /><path
         id="path120"
         style="fill:#d15938;fill-opacity:1;fill-rule:nonzero;stroke:none"
         d="m 2446.8,1657.4 h -488.71 c -11.02,0 -19.94,8.92 -19.94,19.94 v 197.32 c 0,11.01 8.92,19.94 19.94,19.94 h 488.71 c 11.02,0 19.95,-8.93 19.95,-19.95 v -197.31 c 0,-11.01 -8.93,-19.94 -19.95,-19.94" /><path
         id="path122"
         style="fill:#d15938;fill-opacity:1;fill-rule:nonzero;stroke:none"
         d="m 3015.3,1657.4 h -488.71 c -11.02,0 -19.94,8.92 -19.94,19.94 v 197.32 c 0,11.01 8.92,19.94 19.94,19.94 h 488.72 c 11.01,0 19.94,-8.93 19.94,-19.94 v -197.32 c 0,-11.01 -8.93,-19.94 -19.95,-19.94" /><path
         id="path124"
         style="fill:#a33324;fill-opacity:1;fill-rule:nonzero;stroke:none"
         d="m 3583.8,1657.4 h -488.71 c -11.02,0 -19.95,8.92 -19.95,19.94 v 197.32 c 0,11.01 8.93,19.94 19.95,19.94 h 488.72 c 11.01,0 19.94,-8.93 19.94,-19.94 v -197.32 c 0,-11.01 -8.93,-19.94 -19.95,-19.94" /><path
         id="path126"
         style="fill:#d15938;fill-opacity:1;fill-rule:nonzero;stroke:none"
         d="m 4152.3,1657.4 h -488.71 c -11.02,0 -19.95,8.92 -19.95,19.94 v 197.32 c 0,11.01 8.93,19.94 19.95,19.94 h 488.71 c 11.02,0 19.95,-8.93 19.95,-19.94 v -197.32 c 0,-11.01 -8.93,-19.94 -19.95,-19.94" /><path
         id="path128"
         style="fill:#d15938;fill-opacity:1;fill-rule:nonzero;stroke:none"
         d="M 741.301,1104.93 H 252.59 c -11.016,0 -19.945,8.93 -19.945,19.94 v 197.32 c 0,11.01 8.929,19.94 19.945,19.94 h 488.715 c 11.015,0 19.945,-8.93 19.945,-19.94 v -197.31 c 0,-11.02 -8.93,-19.95 -19.949,-19.95" /><path
         id="path130"
         style="fill:#d15938;fill-opacity:1;fill-rule:nonzero;stroke:none"
         d="M 508.656,830.031 H 19.9453 C 8.92969,830.031 0,838.961 0,849.98 v 197.31 c 0,11.01 8.92969,19.94 19.9453,19.94 H 508.66 c 11.016,0 19.945,-8.92 19.945,-19.94 V 849.98 c 0,-11.019 -8.933,-19.949 -19.949,-19.949" /><path
         id="path132"
         style="fill:#a33324;fill-opacity:1;fill-rule:nonzero;stroke:none"
         d="M 1075.26,830.031 H 586.547 c -11.016,0 -19.945,8.93 -19.945,19.949 v 197.31 c 0,11.01 8.929,19.94 19.949,19.94 h 488.709 c 11.02,0 19.95,-8.93 19.95,-19.94 V 849.98 c 0,-11.019 -8.93,-19.949 -19.95,-19.949" /><path
         id="path134"
         style="fill:#d15938;fill-opacity:1;fill-rule:nonzero;stroke:none"
         d="m 1641.86,830.031 h -488.71 c -11.02,0 -19.94,8.93 -19.94,19.938 v 197.321 c 0,11.01 8.93,19.94 19.94,19.94 h 488.72 c 11.01,0 19.94,-8.92 19.94,-19.94 V 849.98 c 0,-11.019 -8.93,-19.949 -19.95,-19.949" /><path
         id="path136"
         style="fill:#d15938;fill-opacity:1;fill-rule:nonzero;stroke:none"
         d="m 2208.46,830.031 h -488.71 c -11.01,0 -19.94,8.93 -19.94,19.949 v 197.31 c 0,11.01 8.93,19.94 19.94,19.94 h 488.72 c 11.01,0 19.94,-8.93 19.94,-19.94 V 849.98 c 0,-11.019 -8.93,-19.949 -19.95,-19.949" /><path
         id="path138"
         style="fill:#d15938;fill-opacity:1;fill-rule:nonzero;stroke:none"
         d="m 2775.06,830.031 h -488.71 c -11.01,0 -19.94,8.93 -19.94,19.938 v 197.321 c 0,11.01 8.93,19.94 19.94,19.94 h 488.72 c 11.01,0 19.94,-8.93 19.94,-19.94 V 849.98 c 0,-11.019 -8.93,-19.949 -19.95,-19.949" /><path
         id="path140"
         style="fill:#cc4723;fill-opacity:1;fill-rule:nonzero;stroke:none"
         d="m 3341.67,830.031 h -488.72 c -11.01,0 -19.94,8.93 -19.94,19.949 v 197.31 c 0,11.01 8.93,19.94 19.95,19.94 h 488.71 c 11.02,0 19.94,-8.93 19.94,-19.94 V 849.98 c 0,-11.019 -8.93,-19.949 -19.94,-19.949" /><path
         id="path142"
         style="fill:#d15938;fill-opacity:1;fill-rule:nonzero;stroke:none"
         d="m 3908.27,830.031 h -488.72 c -11.01,0 -19.94,8.93 -19.94,19.938 v 197.321 c 0,11.01 8.93,19.94 19.95,19.94 h 488.71 c 11.02,0 19.95,-8.93 19.95,-19.94 V 849.98 c 0,-11.019 -8.93,-19.949 -19.95,-19.949" /><path
         id="path144"
         style="fill:#c43825;fill-opacity:1;fill-rule:nonzero;stroke:none"
         d="m 4474.87,830.031 h -488.71 c -11.02,0 -19.95,8.93 -19.95,19.949 v 197.31 c 0,11.01 8.93,19.94 19.95,19.94 h 488.72 c 11.01,0 19.94,-8.92 19.94,-19.94 V 849.98 c 0,-11.019 -8.93,-19.949 -19.95,-19.949" /><path
         id="path146"
         style="fill:#cc4723;fill-opacity:1;fill-rule:nonzero;stroke:none"
         d="M 1309.8,1104.93 H 821.09 c -11.016,0 -19.945,8.93 -19.945,19.95 v 197.31 c 0,11.01 8.929,19.94 19.945,19.94 h 488.71 c 11.02,0 19.95,-8.93 19.95,-19.94 v -197.31 c 0,-11.02 -8.93,-19.95 -19.95,-19.95" /><path
         id="path148"
         style="fill:#d15938;fill-opacity:1;fill-rule:nonzero;stroke:none"
         d="m 1878.3,1104.93 h -488.71 c -11.02,0 -19.95,8.93 -19.95,19.95 v 197.31 c 0,11.01 8.93,19.94 19.95,19.94 h 488.72 c 11.01,0 19.94,-8.93 19.94,-19.94 v -197.31 c 0,-11.02 -8.93,-19.95 -19.95,-19.95" /><path
         id="path150"
         style="fill:#c43825;fill-opacity:1;fill-rule:nonzero;stroke:none"
         d="m 2446.8,1104.93 h -488.71 c -11.02,0 -19.94,8.93 -19.94,19.94 v 197.32 c 0,11.01 8.93,19.94 19.94,19.94 h 488.72 c 11.01,0 19.94,-8.93 19.94,-19.94 v -197.31 c 0,-11.02 -8.93,-19.95 -19.95,-19.95" /><path
         id="path152"
         style="fill:#d15938;fill-opacity:1;fill-rule:nonzero;stroke:none"
         d="m 3015.3,1104.93 h -488.71 c -11.02,0 -19.94,8.93 -19.94,19.94 v 197.32 c 0,11.01 8.93,19.94 19.94,19.94 h 488.72 c 11.01,0 19.94,-8.93 19.94,-19.94 v -197.31 c 0,-11.02 -8.93,-19.95 -19.95,-19.95" /><path
         id="path154"
         style="fill:#d15938;fill-opacity:1;fill-rule:nonzero;stroke:none"
         d="m 3583.8,1104.93 h -488.71 c -11.02,0 -19.95,8.93 -19.95,19.94 v 197.32 c 0,11.01 8.93,19.94 19.95,19.94 h 488.72 c 11.01,0 19.94,-8.93 19.94,-19.94 v -197.31 c 0,-11.02 -8.93,-19.95 -19.95,-19.95" /><path
         id="path156"
         style="fill:#cc4723;fill-opacity:1;fill-rule:nonzero;stroke:none"
         d="m 4152.3,1104.93 h -488.71 c -11.02,0 -19.95,8.93 -19.95,19.94 v 197.32 c 0,11.01 8.93,19.94 19.95,19.94 h 488.71 c 11.02,0 19.95,-8.93 19.95,-19.94 v -197.31 c 0,-11.02 -8.93,-19.95 -19.95,-19.95" /><path
         id="path158"
         style="fill:#c84026;fill-opacity:1;fill-rule:nonzero;stroke:none"
         d="M 741.301,552.461 H 252.59 c -11.016,0 -19.945,8.93 -19.945,19.949 v 197.309 c 0,11.019 8.929,19.953 19.945,19.953 h 488.715 c 11.015,0 19.945,-8.934 19.945,-19.953 V 572.41 c 0,-11.019 -8.93,-19.949 -19.949,-19.949" /><path
         id="path160"
         style="fill:#cc4723;fill-opacity:1;fill-rule:nonzero;stroke:none"
         d="M 508.656,277.57 H 19.9453 C 8.92969,277.57 0,286.5 0,297.512 V 494.82 c 0,11.02 8.92969,19.95 19.9453,19.95 H 508.66 c 11.016,0 19.945,-8.93 19.945,-19.938 v -197.32 c 0,-11.012 -8.933,-19.942 -19.949,-19.942" /><path
         id="path162"
         style="fill:#d15938;fill-opacity:1;fill-rule:nonzero;stroke:none"
         d="M 1075.26,277.57 H 586.547 c -11.016,0 -19.945,8.93 -19.945,19.942 V 494.82 c 0,11.02 8.929,19.95 19.949,19.95 h 488.709 c 11.02,0 19.95,-8.93 19.95,-19.95 V 297.512 c 0,-11.012 -8.93,-19.942 -19.95,-19.942" /><path
         id="path164"
         style="fill:#d15938;fill-opacity:1;fill-rule:nonzero;stroke:none"
         d="m 1641.86,277.57 h -488.71 c -11.02,0 -19.94,8.93 -19.94,19.942 V 494.82 c 0,11.02 8.93,19.95 19.94,19.95 h 488.72 c 11.01,0 19.94,-8.93 19.94,-19.938 v -197.32 c 0,-11.012 -8.93,-19.942 -19.95,-19.942" /><path
         id="path166"
         style="fill:#d15938;fill-opacity:1;fill-rule:nonzero;stroke:none"
         d="m 2208.46,277.57 h -488.71 c -11.01,0 -19.94,8.93 -19.94,19.942 V 494.82 c 0,11.02 8.93,19.95 19.94,19.95 h 488.72 c 11.01,0 19.94,-8.93 19.94,-19.95 V 297.512 c 0,-11.012 -8.93,-19.942 -19.95,-19.942" /><path
         id="path168"
         style="fill:#a33324;fill-opacity:1;fill-rule:nonzero;stroke:none"
         d="m 2775.06,277.57 h -488.71 c -11.01,0 -19.94,8.93 -19.94,19.942 V 494.82 c 0,11.02 8.93,19.95 19.94,19.95 h 488.72 c 11.01,0 19.94,-8.93 19.94,-19.95 V 297.512 c 0,-11.012 -8.93,-19.942 -19.95,-19.942" /><path
         id="path170"
         style="fill:#cc4723;fill-opacity:1;fill-rule:nonzero;stroke:none"
         d="m 3341.67,277.57 h -488.72 c -11.01,0 -19.94,8.93 -19.94,19.942 V 494.82 c 0,11.02 8.93,19.95 19.95,19.95 h 488.71 c 11.02,0 19.94,-8.93 19.94,-19.95 V 297.512 c 0,-11.012 -8.93,-19.942 -19.94,-19.942" /><path
         id="path172"
         style="fill:#b63e24;fill-opacity:1;fill-rule:nonzero;stroke:none"
         d="m 3908.27,277.57 h -488.72 c -11.01,0 -19.94,8.922 -19.94,19.942 V 494.82 c 0,11.02 8.93,19.95 19.95,19.95 h 488.71 c 11.02,0 19.95,-8.93 19.95,-19.95 V 297.512 c 0,-11.012 -8.93,-19.942 -19.95,-19.942" /><path
         id="path174"
         style="fill:#cc4723;fill-opacity:1;fill-rule:nonzero;stroke:none"
         d="m 4474.87,277.57 h -488.71 c -11.02,0 -19.95,8.922 -19.95,19.942 V 494.82 c 0,11.02 8.93,19.95 19.95,19.95 h 488.72 c 11.01,0 19.94,-8.93 19.94,-19.938 v -197.32 c 0,-11.012 -8.93,-19.942 -19.95,-19.942" /><path
         id="path176"
         style="fill:#d15938;fill-opacity:1;fill-rule:nonzero;stroke:none"
         d="M 1309.8,552.461 H 821.09 c -11.016,0 -19.945,8.93 -19.945,19.949 v 197.309 c 0,11.019 8.929,19.953 19.945,19.953 h 488.71 c 11.02,0 19.95,-8.934 19.95,-19.953 V 572.41 c 0,-11.019 -8.93,-19.949 -19.95,-19.949" /><path
         id="path178"
         style="fill:#a33324;fill-opacity:1;fill-rule:nonzero;stroke:none"
         d="m 1878.3,552.461 h -488.71 c -11.02,0 -19.95,8.93 -19.95,19.949 v 197.309 c 0,11.019 8.93,19.953 19.95,19.953 h 488.71 c 11.02,0 19.95,-8.942 19.95,-19.953 V 572.41 c 0,-11.019 -8.93,-19.949 -19.95,-19.949" /><path
         id="path180"
         style="fill:#d15938;fill-opacity:1;fill-rule:nonzero;stroke:none"
         d="m 2446.8,552.461 h -488.71 c -11.02,0 -19.94,8.93 -19.94,19.949 v 197.309 c 0,11.019 8.93,19.953 19.94,19.953 h 488.71 c 11.02,0 19.95,-8.934 19.95,-19.953 V 572.41 c 0,-11.019 -8.93,-19.949 -19.95,-19.949" /><path
         id="path182"
         style="fill:#c43825;fill-opacity:1;fill-rule:nonzero;stroke:none"
         d="m 3015.3,552.461 h -488.71 c -11.02,0 -19.94,8.93 -19.94,19.949 v 197.309 c 0,11.019 8.93,19.953 19.94,19.953 h 488.72 c 11.01,0 19.94,-8.934 19.94,-19.953 V 572.41 c 0,-11.019 -8.93,-19.949 -19.95,-19.949" /><path
         id="path184"
         style="fill:#d15938;fill-opacity:1;fill-rule:nonzero;stroke:none"
         d="m 3583.8,552.461 h -488.71 c -11.02,0 -19.95,8.93 -19.95,19.949 v 197.309 c 0,11.019 8.93,19.953 19.95,19.953 h 488.72 c 11.01,0 19.94,-8.934 19.94,-19.953 V 572.41 c 0,-11.019 -8.93,-19.949 -19.95,-19.949" /><path
         id="path186"
         style="fill:#d15938;fill-opacity:1;fill-rule:nonzero;stroke:none"
         d="m 4152.3,552.461 h -488.71 c -11.02,0 -19.95,8.93 -19.95,19.949 v 197.309 c 0,11.019 8.93,19.953 19.95,19.953 h 488.71 c 11.02,0 19.95,-8.934 19.95,-19.953 V 572.41 c 0,-11.019 -8.93,-19.949 -19.95,-19.949" /></g></g></svg>